<svg xmlns="http://www.w3.org/2000/svg" width="960" height="540" viewBox="0 0 960 540">
  <defs>
    <linearGradient id="sky" x2="0" y2="1">
      <stop stop-color="#edf7ed"/>
      <stop offset="1" stop-color="#fff4d9"/>
    </linearGradient>
    <linearGradient id="sea" x2="0" y2="1">
      <stop stop-color="#9bd2c8"/>
      <stop offset="1" stop-color="#d5e8d3"/>
    </linearGradient>
    <linearGradient id="pouch" x2="0.2" y2="1">
      <stop stop-color="#ffc66d"/>
      <stop offset="1" stop-color="#f39958"/>
    </linearGradient>
    <g id="spokes" fill="none" stroke="#56858a" stroke-width="2.5">
      <circle r="76" stroke="#e5ead4" stroke-width="3"/>
      <path d="M-75 0H75 M0-75V75 M-53-53L53 53 M-53 53L53-53 M-69-29L69 29 M-29-69L29 69 M-69 29L69-29 M-29 69L29-69"/>
      <path d="M0-76V-66" stroke="#eea24e" stroke-width="5"/>
    </g>
    <g id="foot">
      <path d="M-8-5 Q-1-10 5-5 L16 0 L12 3 L19 6 Q8 10-8 5Z" fill="#edab54" stroke="#253f49" stroke-width="2.5" stroke-linejoin="round"/>
      <path d="M-5 0L10 4 M0-3L12 1" fill="none" stroke="#c98140" stroke-width="1.5"/>
      <path d="M-12 10H16" stroke="#253f49" stroke-width="5" stroke-linecap="round"/>
    </g>
  </defs>

  <!-- A quiet coastal morning. -->
  <rect width="960" height="540" fill="url(#sky)"/>
  <circle cx="751" cy="112" r="51" fill="#f3b278"/>
  <circle cx="751" cy="112" r="64" fill="none" stroke="#f3b278" stroke-width="1.5" opacity=".3"/>

  <g fill="#fffdf1" opacity=".9">
    <path d="M110 116 Q118 99 137 104 Q146 79 169 94 Q190 87 200 108 Q220 108 225 119H110Z">
      <animateTransform attributeName="transform" type="translate" values="0 0;12 0;0 0" dur="8s" repeatCount="indefinite"/>
    </path>
    <path d="M628 67 Q638 52 653 59 Q667 39 686 58 Q705 55 710 70H628Z">
      <animateTransform attributeName="transform" type="translate" values="0 0;-9 0;0 0" dur="8s" repeatCount="indefinite"/>
    </path>
    <path d="M802 198 Q812 181 832 188 Q845 168 865 186 Q888 181 897 201H802Z"/>
  </g>

  <g fill="none" stroke="#719a96" stroke-width="2.5" stroke-linecap="round">
    <path d="M263 145q8-9 16 0q8-9 16 0"/>
    <path d="M305 121q6-7 12 0q6-7 12 0"/>
  </g>

  <path d="M0 283 Q83 246 153 268 Q204 250 260 281 Q319 257 375 284 L375 315H0Z" fill="#b5d3bf"/>
  <path d="M647 291 Q714 255 778 279 Q834 254 883 279 Q925 267 960 284V325H647Z" fill="#a9ccbb"/>
  <path d="M0 300Q247 293 477 303T960 298V415H0Z" fill="url(#sea)"/>
  <g fill="none" stroke="#f2f5db" stroke-linecap="round" stroke-width="3" opacity=".85">
    <path d="M34 327H144 M191 310H253 M739 324H827 M852 344H924"/>
    <path d="M69 371H173 M772 381H853 M26 399H83">
      <animate attributeName="opacity" values=".4;1;.4" dur="8s" repeatCount="indefinite"/>
    </path>
    <path d="M109 346H197 M716 354H778">
      <animateTransform attributeName="transform" type="translate" values="0 0;-15 0;0 0" dur="8s" repeatCount="indefinite"/>
    </path>
  </g>
  <path d="M0 414Q171 402 314 415T618 412T960 410V540H0Z" fill="#f2dfb8"/>
  <path d="M0 435Q218 424 425 436T960 432V540H0Z" fill="#f8e9ca"/>
  <path d="M0 476H960" stroke="#d6c8a8" stroke-width="2"/>
  <path d="M-160 507H1120" fill="none" stroke="#decdaa" stroke-width="4" stroke-dasharray="54 106" stroke-linecap="round">
    <animate attributeName="stroke-dashoffset" from="0" to="160" dur="8s" repeatCount="indefinite"/>
  </path>

  <g stroke="#7b9c80" stroke-width="3" stroke-linecap="round" fill="none">
    <path d="M129 449q-1-20-10-30 M129 449q3-28 15-39 M129 449q13-17 23-18"/>
    <path d="M822 451q0-25-12-37 M822 451q6-28 17-31 M822 451q14-13 24-12"/>
  </g>
  <g fill="#dfbe87">
    <ellipse cx="171" cy="458" rx="5" ry="2"/>
    <ellipse cx="788" cy="465" rx="7" ry="2"/>
    <ellipse cx="93" cy="475" rx="4" ry="2"/>
    <ellipse cx="866" cy="476" rx="4" ry="2"/>
  </g>

  <ellipse cx="478" cy="474" rx="263" ry="12" fill="#7e8f7a" opacity=".15"/>
  <ellipse cx="322" cy="474" rx="73" ry="5" fill="#536c65" opacity=".13"/>
  <ellipse cx="634" cy="474" rx="73" ry="5" fill="#536c65" opacity=".13"/>

  <!-- Wheels: four full revolutions in each eight-second loop. -->
  <g>
    <g transform="translate(322 382)">
      <circle r="88" fill="#f8f1d9" stroke="#253f49" stroke-width="10"/>
      <circle r="81" fill="none" stroke="#c3d4bd" stroke-width="2"/>
      <g>
        <use href="#spokes"/>
        <animateTransform attributeName="transform" type="rotate" from="0" to="1440" dur="8s" repeatCount="indefinite"/>
      </g>
      <circle r="10" fill="#d9e5d3" stroke="#253f49" stroke-width="3"/>
      <circle r="4" fill="#253f49"/>
    </g>
    <g transform="translate(634 382)">
      <circle r="88" fill="#f8f1d9" stroke="#253f49" stroke-width="10"/>
      <circle r="81" fill="none" stroke="#c3d4bd" stroke-width="2"/>
      <g>
        <use href="#spokes"/>
        <animateTransform attributeName="transform" type="rotate" from="0" to="1440" dur="8s" repeatCount="indefinite"/>
      </g>
      <circle r="10" fill="#d9e5d3" stroke="#253f49" stroke-width="3"/>
      <circle r="4" fill="#253f49"/>
    </g>
  </g>

  <!-- The far leg follows the opposite pedal. -->
  <path d="M447 258L457 323L439 387" fill="none" stroke="#253f49" stroke-width="12" stroke-linecap="round" stroke-linejoin="round">
    <animate attributeName="d" dur="2s" repeatCount="indefinite"
      values="M447 258L457 323L439 387;M447 258L466 313L447 368;M447 258L480 310L466 360;M447 258L490 316L485 368;M447 258L493 329L493 387;M447 258L487 340L485 406;M447 258L474 343L466 414;M447 258L460 336L447 406;M447 258L457 323L439 387"/>
  </path>
  <path d="M447 258L457 323L439 387" fill="none" stroke="#c48a49" stroke-width="7" stroke-linecap="round" stroke-linejoin="round">
    <animate attributeName="d" dur="2s" repeatCount="indefinite"
      values="M447 258L457 323L439 387;M447 258L466 313L447 368;M447 258L480 310L466 360;M447 258L490 316L485 368;M447 258L493 329L493 387;M447 258L487 340L485 406;M447 258L474 343L466 414;M447 258L460 336L447 406;M447 258L457 323L439 387"/>
  </path>
  <g transform="translate(466 387)">
    <g>
      <animateTransform attributeName="transform" type="rotate" from="180" to="1620" dur="8s" repeatCount="indefinite"/>
      <path d="M0 0H27" stroke="#597576" stroke-width="7" stroke-linecap="round"/>
      <g transform="translate(27 0)">
        <g>
          <animateTransform attributeName="transform" type="rotate" from="-180" to="-1620" dur="8s" repeatCount="indefinite"/>
          <use href="#foot" opacity=".95"/>
        </g>
      </g>
    </g>
  </g>

  <!-- Mudguards and the slender, double-triangle frame. -->
  <g fill="none" stroke-linecap="round" stroke-linejoin="round">
    <path d="M239 352A89 89 0 0 1 394 330 M563 326A90 90 0 0 1 718 350" stroke="#253f49" stroke-width="9"/>
    <path d="M239 352A89 89 0 0 1 394 330 M563 326A90 90 0 0 1 718 350" stroke="#eda362" stroke-width="5"/>
    <path d="M322 370L466 367A20 20 0 0 1 466 407L322 394A12 12 0 0 1 322 370Z" stroke="#60797a" stroke-width="3"/>
    <path d="M322 382L418 292L466 387L322 382 M418 292L563 302L466 387 M563 302L634 382" stroke="#253f49" stroke-width="12"/>
    <path d="M322 382L418 292L466 387L322 382 M418 292L563 302L466 387 M563 302L634 382" stroke="#3d9d9b" stroke-width="7"/>
    <path d="M428 294L551 302 M429 314L460 376" stroke="#8dd2be" stroke-width="2.5"/>
    <path d="M418 293L412 276 M563 302L553 269" stroke="#253f49" stroke-width="9"/>
    <path d="M418 291L413 277 M562 296L554 270" stroke="#b0c6bb" stroke-width="4"/>
    <path d="M552 270L551 257Q552 249 565 250L580 254Q590 258 584 269" stroke="#253f49" stroke-width="8"/>
    <path d="M552 268L552 257Q554 251 565 252" stroke="#b9d1c4" stroke-width="3"/>
    <path d="M576 253Q591 256 584 269" stroke="#b7794f" stroke-width="9"/>
    <path d="M582 271Q603 305 574 327" stroke="#253f49" stroke-width="2"/>
  </g>
  <path d="M391 275Q415 269 441 277Q447 281 439 285L400 285Q390 284 391 275Z" fill="#a56546" stroke="#253f49" stroke-width="3"/>
  <path d="M397 277Q416 274 436 279" fill="none" stroke="#e4ad74" stroke-width="2" stroke-linecap="round"/>
  <circle cx="466" cy="387" r="22" fill="#253f49"/>
  <circle cx="466" cy="387" r="16" fill="#e2ead4" stroke="#859f96" stroke-width="2"/>
  <circle cx="466" cy="387" r="9" fill="#3d9d9b"/>

  <!-- Near leg, with an articulated knee and a level webbed foot. -->
  <path d="M424 256L458 329L493 387" fill="none" stroke="#253f49" stroke-width="13" stroke-linecap="round" stroke-linejoin="round">
    <animate attributeName="d" dur="2s" repeatCount="indefinite"
      values="M424 256L458 329L493 387;M424 256L450 338L485 406;M424 256L435 339L466 414;M424 256L423 333L447 406;M424 256L421 321L439 387;M424 256L428 309L447 368;M424 256L443 304L466 360;M424 256L455 313L485 368;M424 256L458 329L493 387"/>
  </path>
  <path d="M424 256L458 329L493 387" fill="none" stroke="#edb35f" stroke-width="8" stroke-linecap="round" stroke-linejoin="round">
    <animate attributeName="d" dur="2s" repeatCount="indefinite"
      values="M424 256L458 329L493 387;M424 256L450 338L485 406;M424 256L435 339L466 414;M424 256L423 333L447 406;M424 256L421 321L439 387;M424 256L428 309L447 368;M424 256L443 304L466 360;M424 256L455 313L485 368;M424 256L458 329L493 387"/>
  </path>
  <g transform="translate(466 387)">
    <g>
      <animateTransform attributeName="transform" type="rotate" from="0" to="1440" dur="8s" repeatCount="indefinite"/>
      <path d="M0 0H27" stroke="#253f49" stroke-width="8" stroke-linecap="round"/>
      <path d="M0 0H27" stroke="#c7d9c9" stroke-width="4" stroke-linecap="round"/>
      <g transform="translate(27 0)">
        <g>
          <animateTransform attributeName="transform" type="rotate" from="0" to="-1440" dur="8s" repeatCount="indefinite"/>
          <use href="#foot"/>
        </g>
      </g>
    </g>
    <circle r="5" fill="#f4cc81" stroke="#253f49" stroke-width="2"/>
  </g>

  <!-- Tail, body, and the pelican's characteristic folded neck. -->
  <path d="M375 215Q347 212 326 191L334 216L317 209Q335 239 371 244Z" fill="#d6e2d8" stroke="#253f49" stroke-width="3.5" stroke-linejoin="round"/>
  <path d="M339 215L367 233 M346 208L374 225" fill="none" stroke="#96b1ab" stroke-width="2.5" stroke-linecap="round"/>

  <path d="M362 219
           Q359 187 390 182
           Q418 178 450 201
           Q477 218 481 191
           Q486 170 485 147
           Q474 131 482 113
           Q490 94 512 96
           Q537 96 545 117
           Q553 137 536 150
           Q526 164 527 187
           Q531 227 501 252
           Q479 271 436 270
           Q389 271 369 248
           Q360 237 362 219Z"
        fill="#fffcef" stroke="#253f49" stroke-width="3.5" stroke-linejoin="round"/>
  <path d="M494 151Q505 170 501 193Q497 231 476 241Q450 257 409 251Q442 274 479 259Q520 244 522 207Q518 178 527 157Z" fill="#dce8de"/>
  <path d="M486 111L475 108L484 102L479 96Q492 93 500 99" fill="#fffcef" stroke="#253f49" stroke-width="3" stroke-linecap="round" stroke-linejoin="round"/>
  <path d="M493 123Q505 113 518 119" fill="none" stroke="#e0e8d8" stroke-width="6" stroke-linecap="round"/>

  <!-- A little neckerchief catches the sea breeze. -->
  <path d="M492 169Q463 169 440 151Q433 149 427 153L435 165L421 168Q454 189 490 179Z" fill="#e78362" stroke="#253f49" stroke-width="2.5" stroke-linejoin="round">
    <animate attributeName="d" dur="8s" repeatCount="indefinite"
      values="M492 169Q463 169 440 151Q433 149 427 153L435 165L421 168Q454 189 490 179Z;M492 169Q463 176 439 158Q431 154 424 158L434 170L421 174Q453 188 490 179Z;M492 169Q463 169 440 151Q433 149 427 153L435 165L421 168Q454 189 490 179Z"/>
  </path>
  <path d="M486 163Q504 174 524 167L524 180Q502 187 486 175Z" fill="#ee9470" stroke="#253f49" stroke-width="2.5"/>
  <path d="M491 169Q506 177 520 173" fill="none" stroke="#ffd0a2" stroke-width="2"/>

  <!-- The forward wing reaches comfortably to the bars. -->
  <path d="M387 206Q412 193 440 219Q466 243 492 248L552 252Q559 254 557 260Q553 267 541 267L486 269Q445 266 409 246Q389 234 387 206Z" fill="#eaf0e4" stroke="#253f49" stroke-width="3" stroke-linejoin="round"/>
  <path d="M400 214Q430 244 484 257L539 258 M400 226Q435 253 478 263" fill="none" stroke="#a9c2b7" stroke-width="2.5" stroke-linecap="round"/>
  <path d="M536 253L543 261 M544 253L550 260" fill="none" stroke="#809e97" stroke-width="2" stroke-linecap="round"/>

  <!-- Long bill and generous golden throat pouch. -->
  <path d="M536 136L662 151Q642 165 605 182Q573 196 552 171Q542 158 536 136Z" fill="url(#pouch)" stroke="#253f49" stroke-width="3" stroke-linejoin="round"/>
  <path d="M548 145Q562 184 595 180" fill="none" stroke="#ffdb93" stroke-width="4" stroke-linecap="round"/>
  <path d="M537 128Q585 131 665 149Q672 151 665 155L541 147Q534 141 537 128Z" fill="#f6c66d" stroke="#253f49" stroke-width="3" stroke-linejoin="round"/>
  <path d="M548 135L642 147" fill="none" stroke="#fff0b2" stroke-width="3" stroke-linecap="round"/>
  <path d="M542 146L655 152" fill="none" stroke="#b57c42" stroke-width="1.5" stroke-linecap="round"/>
  <path d="M551 134L557 135" stroke="#9f763f" stroke-width="2" stroke-linecap="round"/>

  <circle cx="522" cy="123" r="10" fill="#f6dca2"/>
  <circle cx="524" cy="123" r="5" fill="#253f49"/>
  <circle cx="525.5" cy="121.5" r="1.6" fill="#fffef4"/>
  <path d="M513 109Q521 105 529 110" fill="none" stroke="#253f49" stroke-width="2.5" stroke-linecap="round"/>
  <path d="M504 142Q511 146 516 142" fill="none" stroke="#bdcfc1" stroke-width="2.5" stroke-linecap="round"/>

  <!-- Small fittings finish the bicycle. -->
  <circle cx="562" cy="249" r="7" fill="#f6ce79" stroke="#253f49" stroke-width="2.5"/>
  <path d="M558 246L562 245" stroke="#fff3be" stroke-width="2" stroke-linecap="round"/>
  <path d="M611 333L622 330L627 341L617 346Z" fill="#fff2c6" stroke="#253f49" stroke-width="2.5" stroke-linejoin="round"/>
  <path d="M281 310L289 307" stroke="#dc7857" stroke-width="6" stroke-linecap="round"/>
</svg>