<svg xmlns="http://www.w3.org/2000/svg" width="960" height="540" viewBox="0 0 960 540">
  <defs>
    <linearGradient id="sky" x1="0" y1="0" x2="0" y2="1">
      <stop offset="0" stop-color="#91d9f2"/>
      <stop offset="1" stop-color="#e8f7d9"/>
    </linearGradient>
    <linearGradient id="body" x1="0" y1="0" x2="1" y2="1">
      <stop stop-color="#fffdf4"/>
      <stop offset="1" stop-color="#d9e6e3"/>
    </linearGradient>
    <linearGradient id="beak" x1="0" y1="0" x2="1" y2="1">
      <stop stop-color="#f8b84e"/>
      <stop offset="1" stop-color="#e87538"/>
    </linearGradient>
    <filter id="shadow" x="-30%" y="-30%" width="160%" height="160%">
      <feGaussianBlur stdDeviation="7"/>
    </filter>
  </defs>

  <rect width="960" height="540" fill="url(#sky)"/>
  <circle cx="790" cy="105" r="47" fill="#fff1a8" opacity=".9"/>
  <path d="M0 395 Q135 350 270 392 T540 385 T810 390 T1020 370 V540 H0Z" fill="#a7d98e"/>
  <path d="M0 440 Q190 410 390 438 T760 430 T1000 420 V540 H0Z" fill="#76be78"/>
  <ellipse cx="500" cy="454" rx="355" ry="23" fill="#3f775b" opacity=".28" filter="url(#shadow)"/>

  <g stroke="#28546a" stroke-width="8" stroke-linejoin="round" stroke-linecap="round">
    <g fill="none">
      <circle cx="300" cy="420" r="83" stroke="#24495b" stroke-width="9"/>
      <circle cx="700" cy="420" r="83" stroke="#24495b" stroke-width="9"/>
      <g stroke="#6f9ba5" stroke-width="3">
        <path d="M300 337V503M217 420H383M241 361L359 479M359 361L241 479"/>
        <path d="M700 337V503M617 420H783M641 361L759 479M759 361L641 479"/>
      </g>
      <g transform="rotate(0 300 420)">
        <animateTransform attributeName="transform" type="rotate" from="0 300 420" to="360 300 420" dur="8s" repeatCount="indefinite"/>
      </g>
      <g transform="rotate(0 700 420)">
        <animateTransform attributeName="transform" type="rotate" from="0 700 420" to="360 700 420" dur="8s" repeatCount="indefinite"/>
      </g>
    </g>

    <path d="M300 420 L438 300 L520 420 L300 420 M438 300 L700 420 L520 420" fill="none" stroke="#d85b46" stroke-width="10"/>
    <path d="M438 300 L420 270" fill="none" stroke="#28546a"/>
    <path d="M405 270 H458" fill="none" stroke="#28546a" stroke-width="9"/>
    <path d="M700 420 L685 293 Q682 274 697 263" fill="none" stroke="#28546a" stroke-width="8"/>
    <path d="M685 280 Q710 266 733 280" fill="none" stroke="#28546a" stroke-width="8"/>
    <circle cx="520" cy="420" r="13" fill="#f3b33d"/>
    <g transform="rotate(0 520 420)">
      <animateTransform attributeName="transform" type="rotate" from="0 520 420" to="360 520 420" dur="1.2s" repeatCount="indefinite"/>
      <path d="M520 420 L553 392 M520 420 L487 448" stroke="#28546a" stroke-width="7"/>
      <path d="M548 390 h21 M482 451 h-21" stroke="#f3b33d" stroke-width="8"/>
    </g>
  </g>

  <g>
    <path d="M452 306 Q463 260 505 250 Q555 244 582 287 Q598 319 574 349 Q545 369 494 354 Q454 342 452 306Z" fill="url(#body)" stroke="#294d5c" stroke-width="7"/>
    <path d="M478 286 Q520 267 564 294 Q548 337 510 342 Q484 330 478 286Z" fill="#47788a" stroke="#294d5c" stroke-width="6"/>
    <path d="M477 282 Q457 325 472 355" fill="none" stroke="#294d5c" stroke-width="10"/>
    <path d="M467 351 Q486 370 511 366" fill="none" stroke="#e9a43d" stroke-width="8"/>

    <path d="M510 254 Q484 225 493 179 Q501 139 540 127 Q579 120 604 148 Q620 169 605 193 Q589 216 568 230 L575 260Z" fill="url(#body)" stroke="#294d5c" stroke-width="7"/>
    <path d="M566 151 Q590 137 621 151 L690 179 Q703 186 688 195 L608 204 Q582 199 566 184Z" fill="url(#beak)" stroke="#294d5c" stroke-width="7"/>
    <path d="M610 185 L686 187" fill="none" stroke="#b85b3c" stroke-width="4"/>
    <circle cx="570" cy="159" r="7" fill="#263d4b"/>
    <circle cx="572" cy="157" r="2.5" fill="#fff"/>
    <path d="M531 129 Q516 102 538 88 Q560 77 576 99 Q583 111 573 129" fill="#f7fbef" stroke="#294d5c" stroke-width="6"/>
    <path d="M530 219 Q511 233 503 256" fill="none" stroke="#d5e4df" stroke-width="12"/>
    
    <g stroke="#294d5c" stroke-width="7" stroke-linecap="round">
      <path d="M495 344 L510 400"/>
      <path d="M548 347 L530 397"/>
    </g>
    <g fill="#e9a43d" stroke="#294d5c" stroke-width="5">
      <path d="M510 398 Q522 404 534 416 L518 421 Q502 415 499 407Z"/>
      <path d="M530 397 Q516 407 505 418 L521 422 Q536 414 539 405Z"/>
    </g>
    <g>
      <animateTransform attributeName="transform" type="translate" values="0 0;0 -3;0 0;0 3;0 0" dur="1.2s" repeatCount="indefinite"/>
      <path d="M497 281 Q464 292 454 319 Q448 336 463 341 Q486 329 508 300Z" fill="#345e70" stroke="#294d5c" stroke-width="7"/>
    </g>
  </g>
</svg>